<?xml version="1.0" encoding="utf-8"?>
<!-- Generator: Adobe Illustrator 23.0.1, SVG Export Plug-In . SVG Version: 6.00 Build 0)  -->
<svg version="1.1" id="Layer_1" xmlns="http://www.w3.org/2000/svg" xmlns:xlink="http://www.w3.org/1999/xlink" x="0px" y="0px"
	 viewBox="0 0 260 54" style="enable-background:new 0 0 260 54;" xml:space="preserve">
<style type="text/css">
	.st0{fill:#FFFFFF;}
</style>
<g>
	<g>
		<path class="st0" d="M47,28c-0.1,0-0.1,0-0.2,0c-1.2,0.1-2.1,1.1-2.1,2.2c-0.2,10.1-8.1,18.3-18.3,19.1c-0.5,0-1.1,0.1-1.6,0.1
			c-0.1,0-0.3,0-0.4,0c-11-0.2-19.8-9.2-19.6-20C4.9,19.3,12.8,11.1,23,10.3c0.5,0,1.1-0.1,1.6-0.1c0.1,0,0.3,0,0.4,0
			c4.2,0.1,8.1,1.4,11.5,3.9c0.4,0.3,0.9,0.5,1.4,0.5c0.1,0,0.1,0,0.2,0c0.7-0.1,1.3-0.4,1.7-0.9c0.8-1,0.6-2.5-0.5-3.2
			c-0.5-0.3-0.9-0.6-1.4-0.9l0.7-1.1l0.9,0.5C39.9,9,40.1,9,40.2,8.8l0.7-1C41,7.6,41,7.4,40.8,7.2L36.8,5c-0.2-0.1-0.5-0.1-0.6,0.1
			l-0.7,1c-0.1,0.2-0.1,0.4,0.1,0.6l0.9,0.5l-0.8,1.2c-2.7-1.4-5.7-2.2-8.8-2.5l0-1.6l2.2,0c0.5,0,0.9-0.4,0.9-0.8l0-2.5
			c0-0.5-0.4-0.8-0.9-0.8l-9.1,0c-0.5,0-0.9,0.4-0.9,0.8l0,2.5c0,0.5,0.4,0.8,0.9,0.8l2.2,0l0,1.7c-3.2,0.3-6.1,1.2-8.8,2.5
			l-0.7-1.1l0.9-0.5c0.2-0.1,0.3-0.4,0.1-0.6l-0.7-1C13,5,12.7,4.9,12.5,5L8.6,7.3C8.4,7.4,8.3,7.7,8.4,7.9l0.7,1
			C9.2,9,9.5,9.1,9.7,9l0.9-0.5l0.7,1.1C4.6,13.7,0.2,21,0,29.3C-0.3,42.6,10.5,53.7,24.1,54c0.2,0,0.4,0,0.5,0c0.7,0,1.4,0,2-0.1
			c12.6-1,22.4-11.1,22.6-23.5c0-0.6-0.2-1.2-0.6-1.6C48.2,28.3,47.7,28.1,47,28z"/>
		<path class="st0" d="M53.4,12.1c-0.5-0.6-1.2-0.9-2-0.9c-0.6,0-1.2,0.2-1.6,0.6L25.3,31.1l-6.4-7.7c-0.5-0.6-1.2-0.9-2-0.9
			c-0.6,0-1.2,0.2-1.6,0.6c-1.1,0.9-1.3,2.5-0.4,3.6l6.9,8.3c0.8,0.9,1.8,1.5,3,1.6c0.2,0,0.3,0,0.5,0c1,0,2-0.3,2.8-1l25-19.9
			C54.2,14.8,54.3,13.2,53.4,12.1z"/>
	</g>
	<g>
		<path class="st0" d="M87.7,30.4c-5.9-1.2-11-2.3-11-7.1c0-3.8,3.7-6.3,9.1-6.3c4.6,0,7.9,1.4,10.3,4.4c1,1.2,1.9,1.6,3.1,1.2
			l0.6-0.2c0.8-0.2,1.3-0.6,1.5-1.2c0.2-0.5,0.1-1.2-0.3-1.8c-2.7-4.6-8.6-7.4-15.3-7.4c-8.3,0-14.3,4.8-14.3,11.3
			c0,8.7,7.9,10.4,14.8,11.9c5.9,1.3,10.9,2.4,10.9,7c0,4.2-3.9,6.8-10,6.8c-5,0-9.3-1.9-11.8-5.3c-0.9-1.2-1.7-1.8-3.2-1.2
			l-0.5,0.2c-0.9,0.4-1.4,0.8-1.6,1.4c-0.2,0.5-0.1,1.1,0.3,1.7c3,5.1,9.4,8.3,16.7,8.3c9.1,0,15.4-4.8,15.4-11.7
			C102.5,33.5,94.7,31.9,87.7,30.4z"/>
		<path class="st0" d="M143,12.6h-0.6c-1.5,0-2.4,0.9-2.4,2.4v19.3c0,10.3-3.4,14.6-11.5,14.6c-8,0-11.5-4.4-11.5-14.7V15
			c0-1.5-0.9-2.4-2.4-2.4H114c-1.5,0-2.4,0.9-2.4,2.4v19.3c0,13.1,5.7,19.8,17,19.8c11.3,0,17-6.7,17-19.8V15
			C145.5,13.5,144.6,12.6,143,12.6z"/>
		<path class="st0" d="M198.9,14.7c-0.2-1.4-1.1-2.1-2.6-2.1h-2c-1.3,0-2.3,0.7-2.7,1.9l-11.6,32.3l-11.6-32.3
			c-0.4-1.2-1.3-1.9-2.7-1.9h-2c-1.4,0-2.3,0.8-2.6,2.1l-7.1,36.1c-0.2,1,0.1,1.6,0.4,2c0.3,0.3,0.8,0.7,1.8,0.7h0.7
			c1.4,0,2.3-0.8,2.6-2.1l6-30.2l11,30.5c0.4,1.2,1.3,1.9,2.7,1.9h1.5c1.3,0,2.3-0.7,2.7-1.9l11-30.5l6,30.2
			c0.2,1.4,1.1,2.1,2.6,2.1h0.7c1,0,1.5-0.4,1.8-0.7c0.3-0.3,0.6-0.9,0.4-2L198.9,14.7z"/>
		<path class="st0" d="M218.9,12.6h-0.6c-1.5,0-2.4,0.9-2.4,2.4V51c0,1.5,0.9,2.4,2.4,2.4h0.6c1.5,0,2.4-0.9,2.4-2.4V15
			C221.3,13.5,220.4,12.6,218.9,12.6z"/>
		<path class="st0" d="M257.6,12.6h-24.2c-1.5,0-2.4,0.9-2.4,2.4v0.3c0,1.5,0.9,2.4,2.4,2.4h9.4V51c0,1.5,0.9,2.4,2.4,2.4h0.6
			c1.5,0,2.4-0.9,2.4-2.4V17.7h9.3c1.5,0,2.4-0.9,2.4-2.4V15C260,13.5,259.1,12.6,257.6,12.6z"/>
	</g>
</g>
</svg>
