<?xml version="1.0" encoding="utf-8"?>
<!-- Generator: Adobe Illustrator 23.0.1, SVG Export Plug-In . SVG Version: 6.00 Build 0)  -->
<svg version="1.1" id="Layer_1" xmlns="http://www.w3.org/2000/svg" xmlns:xlink="http://www.w3.org/1999/xlink" x="0px" y="0px"
	 viewBox="0 0 512 512" style="enable-background:new 0 0 512 512;" xml:space="preserve">
<style type="text/css">
	.st0{fill:#CCCCCC;}
</style>
<path class="st0" d="M71,215.5h39v75.8H71V215.5L71,215.5z"/>
<path class="st0" d="M420,18.4h-328c-40.6,0-73.6,32.9-73.6,73.6V420c0,40.6,32.9,73.6,73.6,73.6h328c40.7,0,73.6-33,73.6-73.6V92
	C493.6,51.4,460.6,18.4,420,18.4L420,18.4z M172.3,121.7H208v34.7h-35.7L172.3,121.7L172.3,121.7z M146.6,309.5v18.3h-112V178.9
	h75.5v-55.2h36.5L146.6,309.5L146.6,309.5z M208.4,325.8h-36.6V185h36.6V325.8z M324.1,389.3h-93.5v-36.5h75.2l-0.5-138.3l-38.2-0.3
	V291h38.2v36.5h-74.8V177.3l111.2,0.9l0.1,18.1l0.6,174.7l0.1,18.3L324.1,389.3L324.1,389.3z M459.1,390.3h-93.6v-36.5h75.2
	l-0.5-138.4l-38.2-0.3V292h38.2v36.5h-74.8V178.3l111.2,0.9l0.1,18.1l0.6,174.7l0.1,18.3L459.1,390.3L459.1,390.3z"/>
</svg>
