<?xml version="1.0" encoding="utf-8"?>
<!-- Generator: Adobe Illustrator 23.0.1, SVG Export Plug-In . SVG Version: 6.00 Build 0)  -->
<svg version="1.1" id="Capa_1" xmlns="http://www.w3.org/2000/svg" xmlns:xlink="http://www.w3.org/1999/xlink" x="0px" y="0px"
	 viewBox="0 0 533.3 533.3" style="enable-background:new 0 0 533.3 533.3;" xml:space="preserve">
<style type="text/css">
	.st0{fill:#CCCCCC;}
</style>
<g>
	<path class="st0" d="M0.4,453c-0.1-1.3-0.2-2.6-0.3-4C0.2,450.3,0.3,451.6,0.4,453z M122.9,294.3c47.9,1.4,80.1-48.3,71.8-111
		c-8.3-62.8-53.9-113.1-101.8-114.5C45,67.3,12.8,115.4,21.1,178.1C29.4,240.9,74.9,292.9,122.9,294.3z M533.3,133.3V88.9
		c0-48.9-40-88.9-88.9-88.9H88.9C40.8,0,1.4,38.7,0.1,86.4c30.4-26.8,72.6-49.1,116.1-49.1c46.5,0,186.1,0,186.1,0l-41.6,35.2h-59
		c39.1,15,60,60.5,60,107.1c0,39.2-21.8,72.9-52.5,96.9c-30,23.4-35.7,33.2-35.7,53.1c0,17,32.2,45.8,49,57.7
		c49.2,34.7,65.1,66.8,65.1,120.5c0,8.6-1.1,17.1-3.2,25.5h160.3c48.9,0,88.9-40,88.9-88.9V166.7h-100v100H400v-100H300v-33.3h100
		v-100h33.3v100L533.3,133.3L533.3,133.3z M96.8,398.9c11.3,0,21.6-0.3,32.3-0.3c-14.1-13.7-25.3-30.5-25.3-51.2
		c0-12.3,3.9-24.1,9.4-34.6c-5.6,0.4-11.3,0.5-17.3,0.5c-38.7,0-71.6-12.5-95.9-33.3v35l0,105.1C27.8,406.9,60.9,398.9,96.8,398.9z
		 M1.8,462.1c-0.6-2.8-1-5.7-1.3-8.7C0.8,456.4,1.2,459.3,1.8,462.1z M237.2,496.3c-7.8-30.6-35.7-45.8-74.4-72.7
		c-14.1-4.5-29.6-7.2-46.3-7.4c-46.7-0.5-90.2,18.2-114.7,46c8.3,40.5,44.3,71.1,87.1,71.1h149.2c0.9-5.8,1.4-11.8,1.4-17.9
		C239.5,508.9,238.7,502.5,237.2,496.3z"/>
</g>
</svg>
