<?xml version="1.0" encoding="utf-8"?>
<!-- Generator: Adobe Illustrator 23.0.1, SVG Export Plug-In . SVG Version: 6.00 Build 0)  -->
<svg version="1.1" id="Capa_1" xmlns="http://www.w3.org/2000/svg" xmlns:xlink="http://www.w3.org/1999/xlink" x="0px" y="0px"
	 viewBox="0 0 512 512" style="enable-background:new 0 0 512 512;" xml:space="preserve">
<style type="text/css">
	.st0{fill:#CCCCCC;}
</style>
<g>
	<path class="st0" d="M426,0H86C38.7,0,0,38.7,0,86v340c0,47.3,38.7,86,86,86h340c47.3,0,86-38.7,86-86V86C512,38.7,473.3,0,426,0z
		 M256,160c-17.6,0-32,14.4-32,32v128c0,52.9-43.1,96-96,96s-96-43.1-96-96v-64h64v64c0,17.6,14.4,32,32,32s32-14.4,32-32V192
		c0-52.9,43.1-96,96-96c52.9,0,96,43.1,96,89v31l-41,12l-23-12v-31C288,174.4,273.6,160,256,160z M480,320c0,52.9-43.1,96-96,96
		s-96-43.1-96-103v-62l23,12l41-12v62c0,24.6,14.4,39,32,39s32-14.4,32-32v-64h64V320z"/>
</g>
</svg>
