<?xml version="1.0" encoding="utf-8"?>
<!-- Generator: Adobe Illustrator 23.0.1, SVG Export Plug-In . SVG Version: 6.00 Build 0)  -->
<svg version="1.1" id="Layer_1" xmlns="http://www.w3.org/2000/svg" xmlns:xlink="http://www.w3.org/1999/xlink" x="0px" y="0px"
	 viewBox="0 0 300 300" style="enable-background:new 0 0 300 300;" xml:space="preserve">
<style type="text/css">
	.st0{clip-path:url(#SVGID_2_);fill:#037F8C;}
</style>
<g>
	<defs>
		<rect id="SVGID_1_" x="1" y="1" width="298" height="298"/>
	</defs>
	<clipPath id="SVGID_2_">
		<use xlink:href="#SVGID_1_"  style="overflow:visible;"/>
	</clipPath>
	<path class="st0" d="M135.7,198.4c-8.1,0-14.6,5.6-14.6,12.6l0,75.3c0,6.9,6.5,12.6,14.6,12.6c8.1,0,14.6-5.6,14.6-12.6l0-75.3
		C150.3,204.1,143.8,198.4,135.7,198.4"/>
	<path class="st0" d="M61.4,241.8c-8.1,0-14.6,5.6-14.6,12.6l0,32c0,6.9,6.5,12.6,14.6,12.6c8.1,0,14.6-5.6,14.6-12.6l0-32
		C76,247.4,69.5,241.8,61.4,241.8"/>
	<path class="st0" d="M210,152.8c-8.1,0-14.6,5.6-14.6,12.6l-0.1,121c0,7,6.5,12.6,14.6,12.6c8.1,0,14.6-5.6,14.6-12.6l0.1-121
		C224.7,158.5,218.1,152.8,210,152.8"/>
	<path class="st0" d="M284.4,86.7c-8.1,0-14.6,5.6-14.6,12.6l-0.1,187.2c0,7,6.5,12.6,14.6,12.6c8.1,0,14.6-5.6,14.6-12.6L299,99.3
		C299,92.3,292.5,86.7,284.4,86.7"/>
	<path class="st0" d="M15.6,223.5c-3.1,0-6.3-0.9-8.9-2.6c-6.4-4.2-7.6-12.1-2.7-17.7L89.5,108c4.3-4.8,12.1-6.3,18.4-3.5l46.2,20.8
		L227,45.1l-17.4-10.8c-4.7-2.9-6.9-7.8-5.8-12.7c1.1-4.8,5.4-8.7,11-9.8l52.8-10.6c1.7-0.3,3.4-0.4,5-0.2c2.1-0.2,4.2,0,6.3,0.6
		c5.9,1.7,9.9,6.4,10,11.8l0.6,45.7c0.1,4.7-3,9.1-7.9,11.3c-4.9,2.2-10.8,1.8-15.3-1l-15.6-9.6l-81.2,89.3
		c-4.3,4.8-12.1,6.2-18.3,3.4l-46.2-20.8l-77.9,86.9C24.3,221.8,20,223.5,15.6,223.5"/>
</g>
</svg>
