<?xml version="1.0" encoding="iso-8859-1"?>
<!-- Generator: Adobe Illustrator 23.0.1, SVG Export Plug-In . SVG Version: 6.00 Build 0)  -->
<svg version="1.1" id="Layer_1" xmlns="http://www.w3.org/2000/svg" xmlns:xlink="http://www.w3.org/1999/xlink" x="0px" y="0px"
	 viewBox="0 0 300 300" style="enable-background:new 0 0 300 300;" xml:space="preserve">
<g>
	<g>
		<defs>
			
				<rect id="SVGID_1_" x="1.917" y="0.962" transform="matrix(0.9986 -0.0525 0.0525 0.9986 -7.1686 9.2805)" width="342.06" height="280.076"/>
		</defs>
		<clipPath id="SVGID_2_">
			<use xlink:href="#SVGID_1_"  style="overflow:visible;"/>
		</clipPath>
		<path style="clip-path:url(#SVGID_2_);fill:#037F8C;" d="M136.74,283.021C62.963,283.339,2.544,222.954,2.196,148.604
			C1.835,74.024,61.63,13.291,135.407,12.973c27.927-0.09,54.809,8.381,77.614,24.538c6.449,4.603,8.078,13.713,3.481,20.277
			c-4.597,6.564-13.599,8.072-20.048,3.468c-17.912-12.736-38.948-19.331-60.902-19.325C77.635,42.22,30.715,89.861,31.033,148.351
			c0.318,58.49,47.634,105.771,105.55,105.483c57.917-0.288,104.836-47.929,104.518-106.419
			c-0.078-8.042,6.359-14.588,14.292-14.545c7.927-0.072,14.479,6.48,14.437,14.413C270.42,221.85,210.632,282.697,136.74,283.021"
			/>
	</g>
	<g>
		<defs>
			<rect id="SVGID_3_" x="5.361" y="17.032" width="330.581" height="269.745"/>
		</defs>
		<clipPath id="SVGID_4_">
			<use xlink:href="#SVGID_3_"  style="overflow:visible;"/>
		</clipPath>
		<path style="clip-path:url(#SVGID_4_);fill:#037F8C;" d="M120.885,212.157c-6.351-0.309-12.227-3.401-16.492-8.553L57.19,146.721
			c-4.455-5.359-4.076-13.602,0.758-18.446c4.834-4.843,12.417-4.431,16.777,0.927l47.202,56.986L275.003,33.677
			c4.834-4.843,12.417-4.431,16.777,0.927c4.455,5.359,4.076,13.602-0.758,18.446L138.041,205.356
			C133.301,210.096,127.235,212.466,120.885,212.157"/>
	</g>
</g>
</svg>
