<?xml version="1.0" encoding="iso-8859-1"?>
<!-- Generator: Adobe Illustrator 23.0.1, SVG Export Plug-In . SVG Version: 6.00 Build 0)  -->
<svg version="1.1" id="Layer_1" xmlns="http://www.w3.org/2000/svg" xmlns:xlink="http://www.w3.org/1999/xlink" x="0px" y="0px"
	 viewBox="0 0 300 300" style="enable-background:new 0 0 300 300;" xml:space="preserve">
<g>
	<g>
		<g>
			<defs>
				<rect id="SVGID_1_" x="10" y="1" width="280" height="298"/>
			</defs>
			<clipPath id="SVGID_2_">
				<use xlink:href="#SVGID_1_"  style="overflow:visible;"/>
			</clipPath>
			<path style="clip-path:url(#SVGID_2_);fill:#037F8C;" d="M132.8,160.6l51.6-49.8c0.6-0.6,1.7,0.3,1.4,1.1l-27.2,68.8
				c-0.6,1.4-1.4,2.6-2.4,3.7c-5.4,5.2-15.5,3.7-22-3.4C128.1,174.3,127.7,165.4,132.8,160.6"/>
		</g>
	</g>
	<g>
		<g>
			<defs>
				<rect id="SVGID_3_" x="10" y="1" width="280" height="298"/>
			</defs>
			<clipPath id="SVGID_4_">
				<use xlink:href="#SVGID_3_"  style="overflow:visible;"/>
			</clipPath>
			<path style="clip-path:url(#SVGID_4_);fill:#037F8C;" d="M102.3,92.4L102.3,92.4c-3.8,1.2-8-0.2-10.1-3.5
				c-2.3-3.8-0.9-8.7,3.1-10.9c4-2.2,9.2-0.9,11.6,2.9s0.9,8.6-3.1,10.8C103.3,92,102.8,92.3,102.3,92.4 M152.7,79.7L152.7,79.7
				c-0.8,0.3-1.8,0.4-2.8,0.4c-4.6,0-8.5-3.6-8.5-7.9c0-4.4,3.8-7.9,8.5-8c4.6,0,8.5,3.5,8.5,7.9C158.5,75.7,156,78.6,152.7,79.7
				 M65.3,127.2L65.3,127.2c-2.3,0.7-4.7,0.6-7-0.6c-4-2.2-5.4-7.1-3.1-10.8c2.3-3.8,7.5-5.1,11.6-2.9c4,2.2,5.4,7.1,3.1,10.9
				C68.8,125.4,67.2,126.6,65.3,127.2 M203.2,92.4L203.2,92.4c-2.3,0.7-4.8,0.5-7-0.6c-4-2.2-5.4-7.1-3.1-10.8
				c2.3-3.8,7.5-5.1,11.6-2.9c4,2.2,5.4,7,3.1,10.8C206.7,90.6,205.1,91.8,203.2,92.4 M51.8,174.9L51.8,174.9
				c-0.8,0.3-1.8,0.5-2.7,0.5c-4.7,0-8.5-3.6-8.5-8l0,0c0-0.1,0-0.2,0-0.3c0-4.4,3.8-7.9,8.5-8c4.6,0,8.4,3.6,8.5,8l0,0
				c0,0.1,0,0.2,0,0.2C57.5,170.9,55.2,173.8,51.8,174.9 M240.1,127.1L240.1,127.1c-3.8,1.2-8-0.2-10.1-3.5l0,0
				c-2.3-3.8-0.9-8.7,3.1-10.9c4-2.2,9.2-0.9,11.5,2.9s1,8.7-3.1,10.9C241.1,126.8,240.6,127,240.1,127.1 M65.4,222.4L65.4,222.4
				c-3.8,1.2-8-0.2-10.1-3.5l0,0c-2.3-3.8-0.9-8.7,3.1-10.9s9.2-0.9,11.6,2.9c2.3,3.8,0.9,8.6-3.1,10.8
				C66.5,222,66,222.2,65.4,222.4 M253.6,174.6L253.6,174.6c-0.8,0.3-1.8,0.4-2.7,0.4c-4.6,0-8.5-3.6-8.5-8s3.8-7.9,8.5-7.9
				c4.6,0,8.5,3.5,8.5,7.9C259.4,170.6,256.9,173.5,253.6,174.6 M102.5,257.1L102.5,257.1c-2.3,0.7-4.7,0.6-7-0.6
				c-4-2.2-5.4-7-3.1-10.8s7.5-5.1,11.5-2.9c4,2.2,5.4,7,3.1,10.9C105.9,255.3,104.3,256.5,102.5,257.1 M240.2,222.1L240.2,222.1
				c-2.3,0.7-4.7,0.6-7-0.6c-4-2.2-5.4-7.1-3.1-10.8c2.3-3.8,7.5-5.1,11.6-2.9c4,2.2,5.4,7,3.1,10.8
				C243.7,220.3,242.1,221.5,240.2,222.1 M152.9,269.7L152.9,269.7c-0.8,0.3-1.8,0.4-2.7,0.4c-4.6,0-8.5-3.5-8.4-7.9
				c0-4.4,3.8-7.9,8.4-7.9s8.5,3.5,8.5,7.9C158.6,265.7,156.3,268.6,152.9,269.7 M203.4,256.9L203.4,256.9c-3.8,1.2-8-0.2-10.1-3.5
				c-2.3-3.8-0.9-8.7,3.1-10.9s9.2-0.9,11.6,2.9c2.3,3.8,0.9,8.6-3.1,10.9C204.3,256.5,203.8,256.7,203.4,256.9"/>
		</g>
	</g>
	<g>
		<g>
			<defs>
				<rect id="SVGID_5_" x="10" y="1" width="280" height="298"/>
			</defs>
			<clipPath id="SVGID_6_">
				<use xlink:href="#SVGID_5_"  style="overflow:visible;"/>
			</clipPath>
			<path style="clip-path:url(#SVGID_6_);fill:#037F8C;" d="M35.3,167.5C35.2,107.8,86.4,59.4,149.7,59.2
				c63.3-0.1,114.8,48.1,115,107.7S213.6,275,150.3,275.2C87,275.3,35.5,227.1,35.3,167.5 M150.4,299
				c77.3-0.2,139.8-59.3,139.6-132.1c-0.1-46.3-25.7-86.9-64-110.3l4.5-6.9l5.4,3.1c1.1,0.7,2.7,0.3,3.4-0.8l3.8-5.8
				c0.8-1.1,0.4-2.5-0.8-3.2l-22.6-13.2c-1.1-0.7-2.7-0.3-3.4,0.8l-3.8,5.8c-0.8,1.1-0.4,2.5,0.8,3.2l5.4,3.1l-4.7,7.2
				c-15.3-7.4-32.3-12.3-50.3-13.9V25.1H176c2.7,0,5-2.1,5-4.7V5.7c0-2.6-2.3-4.7-5-4.7l-52.6,0.1c-2.7,0-5,2.1-5,4.7v14.7
				c0,2.6,2.3,4.7,5,4.7h12.4v10.9c-17.9,1.7-34.9,6.6-50.2,14.1L80.8,43l5.4-3.1c1.1-0.7,1.5-2.1,0.8-3.2L83.1,31
				c-0.8-1.1-2.3-1.4-3.4-0.7L57.1,43.4c-1.1,0.7-1.5,2.1-0.8,3.2l3.8,5.7c0.8,1.1,2.3,1.4,3.4,0.7l5.4-3.1l4.6,6.9
				C35.2,80.5,9.9,121.2,10,167.5C10.2,240.3,73,299.2,150.4,299"/>
		</g>
	</g>
</g>
</svg>
