<?xml version="1.0" encoding="utf-8"?>
<!-- Generator: Adobe Illustrator 23.0.1, SVG Export Plug-In . SVG Version: 6.00 Build 0)  -->
<svg version="1.1" id="Layer_1" xmlns="http://www.w3.org/2000/svg" xmlns:xlink="http://www.w3.org/1999/xlink" x="0px" y="0px"
	 viewBox="0 0 420 420" style="enable-background:new 0 0 420 420;" xml:space="preserve">
<style type="text/css">
	.st0{clip-path:url(#SVGID_2_);}
	.st1{opacity:0.5;clip-path:url(#SVGID_4_);}
	.st2{clip-path:url(#SVGID_6_);fill:#E5F0E3;}
</style>
<g>
	<defs>
		<rect id="SVGID_1_" width="420" height="420"/>
	</defs>
	<clipPath id="SVGID_2_">
		<use xlink:href="#SVGID_1_"  style="overflow:visible;"/>
	</clipPath>
	<g class="st0">
		<defs>
			<rect id="SVGID_3_" width="420" height="420"/>
		</defs>
		<clipPath id="SVGID_4_">
			<use xlink:href="#SVGID_3_"  style="overflow:visible;"/>
		</clipPath>
		<g class="st1">
			<g>
				<defs>
					<rect id="SVGID_5_" x="-39.7" y="-30.3" width="499.3" height="452.7"/>
				</defs>
				<clipPath id="SVGID_6_">
					<use xlink:href="#SVGID_5_"  style="overflow:visible;"/>
				</clipPath>
				<path class="st2" d="M11.1,0C4.9,0,0,4.9,0,11.1c0,6.1,4.9,11.1,11.1,11.1s11.1-4.9,11.1-11.1C22.1,4.9,17.2,0,11.1,0"/>
				<path class="st2" d="M55.3,0c-6.1,0-11.1,4.9-11.1,11.1c0,6.1,4.9,11.1,11.1,11.1s11.1-4.9,11.1-11.1C66.3,4.9,61.4,0,55.3,0"/>
				<path class="st2" d="M11.1,44.2C4.9,44.2,0,49.2,0,55.3c0,6.1,4.9,11.1,11.1,11.1s11.1-4.9,11.1-11.1
					C22.1,49.2,17.2,44.2,11.1,44.2"/>
				<path class="st2" d="M55.3,44.2c-6.1,0-11.1,4.9-11.1,11.1c0,6.1,4.9,11.1,11.1,11.1s11.1-4.9,11.1-11.1
					C66.3,49.2,61.4,44.2,55.3,44.2"/>
				<path class="st2" d="M11.1,88.4C4.9,88.4,0,93.4,0,99.5c0,6.1,4.9,11.1,11.1,11.1s11.1-4.9,11.1-11.1
					C22.1,93.4,17.2,88.4,11.1,88.4"/>
				<path class="st2" d="M55.3,88.4c-6.1,0-11.1,4.9-11.1,11.1c0,6.1,4.9,11.1,11.1,11.1s11.1-4.9,11.1-11.1
					C66.3,93.4,61.4,88.4,55.3,88.4"/>
				<path class="st2" d="M11.1,132.6c-6.1,0-11.1,4.9-11.1,11.1c0,6.1,4.9,11.1,11.1,11.1s11.1-4.9,11.1-11.1
					C22.1,137.6,17.2,132.6,11.1,132.6"/>
				<path class="st2" d="M55.3,132.6c-6.1,0-11.1,4.9-11.1,11.1c0,6.1,4.9,11.1,11.1,11.1s11.1-4.9,11.1-11.1
					C66.3,137.6,61.4,132.6,55.3,132.6"/>
				<path class="st2" d="M99.5,0c-6.1,0-11.1,4.9-11.1,11.1c0,6.1,4.9,11.1,11.1,11.1c6.1,0,11.1-4.9,11.1-11.1
					C110.5,4.9,105.6,0,99.5,0"/>
				<path class="st2" d="M143.7,0c-6.1,0-11.1,4.9-11.1,11.1c0,6.1,4.9,11.1,11.1,11.1c6.1,0,11.1-4.9,11.1-11.1
					C154.7,4.9,149.8,0,143.7,0"/>
				<path class="st2" d="M99.5,44.2c-6.1,0-11.1,4.9-11.1,11.1c0,6.1,4.9,11.1,11.1,11.1c6.1,0,11.1-4.9,11.1-11.1
					C110.5,49.2,105.6,44.2,99.5,44.2"/>
				<path class="st2" d="M143.7,44.2c-6.1,0-11.1,4.9-11.1,11.1c0,6.1,4.9,11.1,11.1,11.1c6.1,0,11.1-4.9,11.1-11.1
					C154.7,49.2,149.8,44.2,143.7,44.2"/>
				<path class="st2" d="M99.5,88.4c-6.1,0-11.1,4.9-11.1,11.1c0,6.1,4.9,11.1,11.1,11.1c6.1,0,11.1-4.9,11.1-11.1
					C110.5,93.4,105.6,88.4,99.5,88.4"/>
				<path class="st2" d="M143.7,88.4c-6.1,0-11.1,4.9-11.1,11.1c0,6.1,4.9,11.1,11.1,11.1c6.1,0,11.1-4.9,11.1-11.1
					C154.7,93.4,149.8,88.4,143.7,88.4"/>
				<path class="st2" d="M99.5,132.6c-6.1,0-11.1,4.9-11.1,11.1c0,6.1,4.9,11.1,11.1,11.1c6.1,0,11.1-4.9,11.1-11.1
					C110.5,137.6,105.6,132.6,99.5,132.6"/>
				<path class="st2" d="M143.7,132.6c-6.1,0-11.1,4.9-11.1,11.1c0,6.1,4.9,11.1,11.1,11.1c6.1,0,11.1-4.9,11.1-11.1
					C154.7,137.6,149.8,132.6,143.7,132.6"/>
				<path class="st2" d="M187.9,0c-6.1,0-11.1,4.9-11.1,11.1c0,6.1,4.9,11.1,11.1,11.1c6.1,0,11.1-4.9,11.1-11.1
					C198.9,4.9,194,0,187.9,0"/>
				<path class="st2" d="M232.1,0c-6.1,0-11.1,4.9-11.1,11.1c0,6.1,4.9,11.1,11.1,11.1c6.1,0,11.1-4.9,11.1-11.1
					C243.2,4.9,238.2,0,232.1,0"/>
				<path class="st2" d="M187.9,44.2c-6.1,0-11.1,4.9-11.1,11.1c0,6.1,4.9,11.1,11.1,11.1c6.1,0,11.1-4.9,11.1-11.1
					C198.9,49.2,194,44.2,187.9,44.2"/>
				<path class="st2" d="M232.1,44.2c-6.1,0-11.1,4.9-11.1,11.1c0,6.1,4.9,11.1,11.1,11.1c6.1,0,11.1-4.9,11.1-11.1
					C243.2,49.2,238.2,44.2,232.1,44.2"/>
				<path class="st2" d="M187.9,88.4c-6.1,0-11.1,4.9-11.1,11.1c0,6.1,4.9,11.1,11.1,11.1c6.1,0,11.1-4.9,11.1-11.1
					C198.9,93.4,194,88.4,187.9,88.4"/>
				<path class="st2" d="M232.1,88.4c-6.1,0-11.1,4.9-11.1,11.1c0,6.1,4.9,11.1,11.1,11.1c6.1,0,11.1-4.9,11.1-11.1
					C243.2,93.4,238.2,88.4,232.1,88.4"/>
				<path class="st2" d="M187.9,132.6c-6.1,0-11.1,4.9-11.1,11.1c0,6.1,4.9,11.1,11.1,11.1c6.1,0,11.1-4.9,11.1-11.1
					C198.9,137.6,194,132.6,187.9,132.6"/>
				<path class="st2" d="M232.1,132.6c-6.1,0-11.1,4.9-11.1,11.1c0,6.1,4.9,11.1,11.1,11.1c6.1,0,11.1-4.9,11.1-11.1
					C243.2,137.6,238.2,132.6,232.1,132.6"/>
				<path class="st2" d="M276.3,0c-6.1,0-11.1,4.9-11.1,11.1c0,6.1,4.9,11.1,11.1,11.1s11.1-4.9,11.1-11.1
					C287.4,4.9,282.4,0,276.3,0"/>
				<path class="st2" d="M320.5,0c-6.1,0-11.1,4.9-11.1,11.1c0,6.1,4.9,11.1,11.1,11.1c6.1,0,11.1-4.9,11.1-11.1
					C331.6,4.9,326.6,0,320.5,0"/>
				<path class="st2" d="M276.3,44.2c-6.1,0-11.1,4.9-11.1,11.1c0,6.1,4.9,11.1,11.1,11.1s11.1-4.9,11.1-11.1
					C287.4,49.2,282.4,44.2,276.3,44.2"/>
				<path class="st2" d="M320.5,44.2c-6.1,0-11.1,4.9-11.1,11.1c0,6.1,4.9,11.1,11.1,11.1c6.1,0,11.1-4.9,11.1-11.1
					C331.6,49.2,326.6,44.2,320.5,44.2"/>
				<path class="st2" d="M364.7,22.1c6.1,0,11.1-4.9,11.1-11.1c0-6.1-4.9-11.1-11.1-11.1s-11.1,4.9-11.1,11.1
					C353.7,17.2,358.6,22.1,364.7,22.1"/>
				<path class="st2" d="M364.7,44.2c-6.1,0-11.1,4.9-11.1,11.1c0,6.1,4.9,11.1,11.1,11.1s11.1-4.9,11.1-11.1
					C375.8,49.2,370.8,44.2,364.7,44.2"/>
				<path class="st2" d="M276.3,88.4c-6.1,0-11.1,4.9-11.1,11.1c0,6.1,4.9,11.1,11.1,11.1s11.1-4.9,11.1-11.1
					C287.4,93.4,282.4,88.4,276.3,88.4"/>
				<path class="st2" d="M320.5,88.4c-6.1,0-11.1,4.9-11.1,11.1c0,6.1,4.9,11.1,11.1,11.1c6.1,0,11.1-4.9,11.1-11.1
					C331.6,93.4,326.6,88.4,320.5,88.4"/>
				<path class="st2" d="M276.3,132.6c-6.1,0-11.1,4.9-11.1,11.1c0,6.1,4.9,11.1,11.1,11.1s11.1-4.9,11.1-11.1
					C287.4,137.6,282.4,132.6,276.3,132.6"/>
				<path class="st2" d="M320.5,132.6c-6.1,0-11.1,4.9-11.1,11.1c0,6.1,4.9,11.1,11.1,11.1c6.1,0,11.1-4.9,11.1-11.1
					C331.6,137.6,326.6,132.6,320.5,132.6"/>
				<path class="st2" d="M364.7,88.4c-6.1,0-11.1,4.9-11.1,11.1c0,6.1,4.9,11.1,11.1,11.1s11.1-4.9,11.1-11.1
					C375.8,93.4,370.8,88.4,364.7,88.4"/>
				<path class="st2" d="M364.7,132.6c-6.1,0-11.1,4.9-11.1,11.1c0,6.1,4.9,11.1,11.1,11.1s11.1-4.9,11.1-11.1
					C375.8,137.6,370.8,132.6,364.7,132.6"/>
				<path class="st2" d="M11.1,176.8c-6.1,0-11.1,4.9-11.1,11.1s4.9,11.1,11.1,11.1s11.1-4.9,11.1-11.1S17.2,176.8,11.1,176.8"/>
				<path class="st2" d="M55.3,176.8c-6.1,0-11.1,4.9-11.1,11.1s4.9,11.1,11.1,11.1s11.1-4.9,11.1-11.1S61.4,176.8,55.3,176.8"/>
				<path class="st2" d="M11.1,221.1C4.9,221.1,0,226,0,232.1c0,6.1,4.9,11.1,11.1,11.1s11.1-4.9,11.1-11.1
					C22.1,226,17.2,221.1,11.1,221.1"/>
				<path class="st2" d="M55.3,221.1c-6.1,0-11.1,4.9-11.1,11.1c0,6.1,4.9,11.1,11.1,11.1s11.1-4.9,11.1-11.1
					C66.3,226,61.4,221.1,55.3,221.1"/>
				<path class="st2" d="M11.1,265.3c-6.1,0-11.1,4.9-11.1,11.1s4.9,11.1,11.1,11.1s11.1-4.9,11.1-11.1S17.2,265.3,11.1,265.3"/>
				<path class="st2" d="M55.3,265.3c-6.1,0-11.1,4.9-11.1,11.1s4.9,11.1,11.1,11.1s11.1-4.9,11.1-11.1S61.4,265.3,55.3,265.3"/>
				<path class="st2" d="M11.1,309.5c-6.1,0-11.1,4.9-11.1,11.1s4.9,11.1,11.1,11.1s11.1-4.9,11.1-11.1S17.2,309.5,11.1,309.5"/>
				<path class="st2" d="M55.3,309.5c-6.1,0-11.1,4.9-11.1,11.1s4.9,11.1,11.1,11.1s11.1-4.9,11.1-11.1S61.4,309.5,55.3,309.5"/>
				<path class="st2" d="M11.1,353.7c-6.1,0-11.1,4.9-11.1,11.1s4.9,11.1,11.1,11.1s11.1-4.9,11.1-11.1S17.2,353.7,11.1,353.7"/>
				<path class="st2" d="M55.3,353.7c-6.1,0-11.1,4.9-11.1,11.1s4.9,11.1,11.1,11.1s11.1-4.9,11.1-11.1S61.4,353.7,55.3,353.7"/>
				<path class="st2" d="M99.5,176.8c-6.1,0-11.1,4.9-11.1,11.1s4.9,11.1,11.1,11.1c6.1,0,11.1-4.9,11.1-11.1
					S105.6,176.8,99.5,176.8"/>
				<path class="st2" d="M143.7,176.8c-6.1,0-11.1,4.9-11.1,11.1s4.9,11.1,11.1,11.1c6.1,0,11.1-4.9,11.1-11.1
					S149.8,176.8,143.7,176.8"/>
				<path class="st2" d="M99.5,221.1c-6.1,0-11.1,4.9-11.1,11.1c0,6.1,4.9,11.1,11.1,11.1c6.1,0,11.1-4.9,11.1-11.1
					C110.5,226,105.6,221.1,99.5,221.1"/>
				<path class="st2" d="M143.7,221.1c-6.1,0-11.1,4.9-11.1,11.1c0,6.1,4.9,11.1,11.1,11.1c6.1,0,11.1-4.9,11.1-11.1
					C154.7,226,149.8,221.1,143.7,221.1"/>
				<path class="st2" d="M99.5,265.3c-6.1,0-11.1,4.9-11.1,11.1s4.9,11.1,11.1,11.1c6.1,0,11.1-4.9,11.1-11.1
					S105.6,265.3,99.5,265.3"/>
				<path class="st2" d="M143.7,265.3c-6.1,0-11.1,4.9-11.1,11.1s4.9,11.1,11.1,11.1c6.1,0,11.1-4.9,11.1-11.1
					S149.8,265.3,143.7,265.3"/>
				<path class="st2" d="M99.5,309.5c-6.1,0-11.1,4.9-11.1,11.1s4.9,11.1,11.1,11.1c6.1,0,11.1-4.9,11.1-11.1
					S105.6,309.5,99.5,309.5"/>
				<path class="st2" d="M143.7,309.5c-6.1,0-11.1,4.9-11.1,11.1s4.9,11.1,11.1,11.1c6.1,0,11.1-4.9,11.1-11.1
					S149.8,309.5,143.7,309.5"/>
				<path class="st2" d="M99.5,353.7c-6.1,0-11.1,4.9-11.1,11.1s4.9,11.1,11.1,11.1c6.1,0,11.1-4.9,11.1-11.1
					S105.6,353.7,99.5,353.7"/>
				<path class="st2" d="M143.7,353.7c-6.1,0-11.1,4.9-11.1,11.1s4.9,11.1,11.1,11.1c6.1,0,11.1-4.9,11.1-11.1
					S149.8,353.7,143.7,353.7"/>
				<path class="st2" d="M187.9,176.8c-6.1,0-11.1,4.9-11.1,11.1s4.9,11.1,11.1,11.1c6.1,0,11.1-4.9,11.1-11.1
					S194,176.8,187.9,176.8"/>
				<path class="st2" d="M232.1,176.8c-6.1,0-11.1,4.9-11.1,11.1s4.9,11.1,11.1,11.1c6.1,0,11.1-4.9,11.1-11.1
					S238.2,176.8,232.1,176.8"/>
				<path class="st2" d="M187.9,221.1c-6.1,0-11.1,4.9-11.1,11.1c0,6.1,4.9,11.1,11.1,11.1c6.1,0,11.1-4.9,11.1-11.1
					C198.9,226,194,221.1,187.9,221.1"/>
				<path class="st2" d="M232.1,221.1c-6.1,0-11.1,4.9-11.1,11.1c0,6.1,4.9,11.1,11.1,11.1c6.1,0,11.1-4.9,11.1-11.1
					C243.2,226,238.2,221.1,232.1,221.1"/>
				<path class="st2" d="M187.9,265.3c-6.1,0-11.1,4.9-11.1,11.1s4.9,11.1,11.1,11.1c6.1,0,11.1-4.9,11.1-11.1
					S194,265.3,187.9,265.3"/>
				<path class="st2" d="M232.1,265.3c-6.1,0-11.1,4.9-11.1,11.1s4.9,11.1,11.1,11.1c6.1,0,11.1-4.9,11.1-11.1
					S238.2,265.3,232.1,265.3"/>
				<path class="st2" d="M187.9,309.5c-6.1,0-11.1,4.9-11.1,11.1s4.9,11.1,11.1,11.1c6.1,0,11.1-4.9,11.1-11.1
					S194,309.5,187.9,309.5"/>
				<path class="st2" d="M232.1,309.5c-6.1,0-11.1,4.9-11.1,11.1s4.9,11.1,11.1,11.1c6.1,0,11.1-4.9,11.1-11.1
					S238.2,309.5,232.1,309.5"/>
				<path class="st2" d="M187.9,353.7c-6.1,0-11.1,4.9-11.1,11.1s4.9,11.1,11.1,11.1c6.1,0,11.1-4.9,11.1-11.1
					S194,353.7,187.9,353.7"/>
				<path class="st2" d="M232.1,353.7c-6.1,0-11.1,4.9-11.1,11.1s4.9,11.1,11.1,11.1c6.1,0,11.1-4.9,11.1-11.1
					S238.2,353.7,232.1,353.7"/>
				<path class="st2" d="M276.3,176.8c-6.1,0-11.1,4.9-11.1,11.1s4.9,11.1,11.1,11.1s11.1-4.9,11.1-11.1S282.4,176.8,276.3,176.8"/>
				<path class="st2" d="M320.5,176.8c-6.1,0-11.1,4.9-11.1,11.1s4.9,11.1,11.1,11.1c6.1,0,11.1-4.9,11.1-11.1
					S326.6,176.8,320.5,176.8"/>
				<path class="st2" d="M276.3,221.1c-6.1,0-11.1,4.9-11.1,11.1c0,6.1,4.9,11.1,11.1,11.1s11.1-4.9,11.1-11.1
					C287.4,226,282.4,221.1,276.3,221.1"/>
				<path class="st2" d="M320.5,221.1c-6.1,0-11.1,4.9-11.1,11.1c0,6.1,4.9,11.1,11.1,11.1c6.1,0,11.1-4.9,11.1-11.1
					C331.6,226,326.6,221.1,320.5,221.1"/>
				<path class="st2" d="M364.7,176.8c-6.1,0-11.1,4.9-11.1,11.1s4.9,11.1,11.1,11.1s11.1-4.9,11.1-11.1S370.8,176.8,364.7,176.8"/>
				<path class="st2" d="M364.7,221.1c-6.1,0-11.1,4.9-11.1,11.1c0,6.1,4.9,11.1,11.1,11.1s11.1-4.9,11.1-11.1
					C375.8,226,370.8,221.1,364.7,221.1"/>
				<path class="st2" d="M276.3,265.3c-6.1,0-11.1,4.9-11.1,11.1s4.9,11.1,11.1,11.1s11.1-4.9,11.1-11.1S282.4,265.3,276.3,265.3"/>
				<path class="st2" d="M320.5,265.3c-6.1,0-11.1,4.9-11.1,11.1s4.9,11.1,11.1,11.1c6.1,0,11.1-4.9,11.1-11.1
					S326.6,265.3,320.5,265.3"/>
				<path class="st2" d="M276.3,309.5c-6.1,0-11.1,4.9-11.1,11.1s4.9,11.1,11.1,11.1s11.1-4.9,11.1-11.1S282.4,309.5,276.3,309.5"/>
				<path class="st2" d="M320.5,309.5c-6.1,0-11.1,4.9-11.1,11.1s4.9,11.1,11.1,11.1c6.1,0,11.1-4.9,11.1-11.1
					S326.6,309.5,320.5,309.5"/>
				<path class="st2" d="M364.7,265.3c-6.1,0-11.1,4.9-11.1,11.1s4.9,11.1,11.1,11.1s11.1-4.9,11.1-11.1S370.8,265.3,364.7,265.3"/>
				<path class="st2" d="M364.7,309.5c-6.1,0-11.1,4.9-11.1,11.1s4.9,11.1,11.1,11.1s11.1-4.9,11.1-11.1S370.8,309.5,364.7,309.5"/>
				<path class="st2" d="M276.3,353.7c-6.1,0-11.1,4.9-11.1,11.1s4.9,11.1,11.1,11.1s11.1-4.9,11.1-11.1S282.4,353.7,276.3,353.7"/>
				<path class="st2" d="M320.5,353.7c-6.1,0-11.1,4.9-11.1,11.1s4.9,11.1,11.1,11.1c6.1,0,11.1-4.9,11.1-11.1
					S326.6,353.7,320.5,353.7"/>
				<path class="st2" d="M364.7,353.7c-6.1,0-11.1,4.9-11.1,11.1s4.9,11.1,11.1,11.1s11.1-4.9,11.1-11.1S370.8,353.7,364.7,353.7"/>
				<path class="st2" d="M11.1,353.7c-6.1,0-11.1,4.9-11.1,11.1s4.9,11.1,11.1,11.1s11.1-4.9,11.1-11.1S17.2,353.7,11.1,353.7"/>
				<path class="st2" d="M55.3,353.7c-6.1,0-11.1,4.9-11.1,11.1s4.9,11.1,11.1,11.1s11.1-4.9,11.1-11.1S61.4,353.7,55.3,353.7"/>
				<path class="st2" d="M11.1,397.9c-6.1,0-11.1,4.9-11.1,11.1S4.9,420,11.1,420s11.1-4.9,11.1-11.1S17.2,397.9,11.1,397.9"/>
				<path class="st2" d="M55.3,397.9c-6.1,0-11.1,4.9-11.1,11.1S49.2,420,55.3,420s11.1-4.9,11.1-11.1S61.4,397.9,55.3,397.9"/>
				<path class="st2" d="M99.5,353.7c-6.1,0-11.1,4.9-11.1,11.1s4.9,11.1,11.1,11.1c6.1,0,11.1-4.9,11.1-11.1
					S105.6,353.7,99.5,353.7"/>
				<path class="st2" d="M143.7,353.7c-6.1,0-11.1,4.9-11.1,11.1s4.9,11.1,11.1,11.1c6.1,0,11.1-4.9,11.1-11.1
					S149.8,353.7,143.7,353.7"/>
				<path class="st2" d="M99.5,397.9c-6.1,0-11.1,4.9-11.1,11.1S93.4,420,99.5,420c6.1,0,11.1-4.9,11.1-11.1S105.6,397.9,99.5,397.9
					"/>
				<path class="st2" d="M143.7,397.9c-6.1,0-11.1,4.9-11.1,11.1s4.9,11.1,11.1,11.1c6.1,0,11.1-4.9,11.1-11.1
					S149.8,397.9,143.7,397.9"/>
				<path class="st2" d="M187.9,353.7c-6.1,0-11.1,4.9-11.1,11.1s4.9,11.1,11.1,11.1c6.1,0,11.1-4.9,11.1-11.1
					S194,353.7,187.9,353.7"/>
				<path class="st2" d="M232.1,353.7c-6.1,0-11.1,4.9-11.1,11.1s4.9,11.1,11.1,11.1c6.1,0,11.1-4.9,11.1-11.1
					S238.2,353.7,232.1,353.7"/>
				<path class="st2" d="M187.9,397.9c-6.1,0-11.1,4.9-11.1,11.1s4.9,11.1,11.1,11.1c6.1,0,11.1-4.9,11.1-11.1
					S194,397.9,187.9,397.9"/>
				<path class="st2" d="M232.1,397.9c-6.1,0-11.1,4.9-11.1,11.1S226,420,232.1,420c6.1,0,11.1-4.9,11.1-11.1
					S238.2,397.9,232.1,397.9"/>
				<path class="st2" d="M276.3,353.7c-6.1,0-11.1,4.9-11.1,11.1s4.9,11.1,11.1,11.1s11.1-4.9,11.1-11.1S282.4,353.7,276.3,353.7"/>
				<path class="st2" d="M320.5,353.7c-6.1,0-11.1,4.9-11.1,11.1s4.9,11.1,11.1,11.1c6.1,0,11.1-4.9,11.1-11.1
					S326.6,353.7,320.5,353.7"/>
				<path class="st2" d="M364.7,353.7c-6.1,0-11.1,4.9-11.1,11.1s4.9,11.1,11.1,11.1s11.1-4.9,11.1-11.1S370.8,353.7,364.7,353.7"/>
				<path class="st2" d="M276.3,397.9c-6.1,0-11.1,4.9-11.1,11.1s4.9,11.1,11.1,11.1s11.1-4.9,11.1-11.1S282.4,397.9,276.3,397.9"/>
				<path class="st2" d="M320.5,397.9c-6.1,0-11.1,4.9-11.1,11.1s4.9,11.1,11.1,11.1c6.1,0,11.1-4.9,11.1-11.1
					S326.6,397.9,320.5,397.9"/>
				<path class="st2" d="M364.7,397.9c-6.1,0-11.1,4.9-11.1,11.1s4.9,11.1,11.1,11.1s11.1-4.9,11.1-11.1S370.8,397.9,364.7,397.9"/>
				<path class="st2" d="M364.7,0c-6.1,0-11.1,4.9-11.1,11.1c0,6.1,4.9,11.1,11.1,11.1s11.1-4.9,11.1-11.1
					C375.8,4.9,370.8,0,364.7,0"/>
				<path class="st2" d="M364.7,44.2c-6.1,0-11.1,4.9-11.1,11.1c0,6.1,4.9,11.1,11.1,11.1s11.1-4.9,11.1-11.1
					C375.8,49.2,370.8,44.2,364.7,44.2"/>
				<path class="st2" d="M408.9,22.1c6.1,0,11.1-4.9,11.1-11.1C420,4.9,415.1,0,408.9,0c-6.1,0-11.1,4.9-11.1,11.1
					C397.9,17.2,402.8,22.1,408.9,22.1"/>
				<path class="st2" d="M408.9,44.2c-6.1,0-11.1,4.9-11.1,11.1c0,6.1,4.9,11.1,11.1,11.1c6.1,0,11.1-4.9,11.1-11.1
					C420,49.2,415.1,44.2,408.9,44.2"/>
				<path class="st2" d="M364.7,88.4c-6.1,0-11.1,4.9-11.1,11.1c0,6.1,4.9,11.1,11.1,11.1s11.1-4.9,11.1-11.1
					C375.8,93.4,370.8,88.4,364.7,88.4"/>
				<path class="st2" d="M364.7,132.6c-6.1,0-11.1,4.9-11.1,11.1c0,6.1,4.9,11.1,11.1,11.1s11.1-4.9,11.1-11.1
					C375.8,137.6,370.8,132.6,364.7,132.6"/>
				<path class="st2" d="M408.9,88.4c-6.1,0-11.1,4.9-11.1,11.1c0,6.1,4.9,11.1,11.1,11.1c6.1,0,11.1-4.9,11.1-11.1
					C420,93.4,415.1,88.4,408.9,88.4"/>
				<path class="st2" d="M408.9,132.6c-6.1,0-11.1,4.9-11.1,11.1c0,6.1,4.9,11.1,11.1,11.1c6.1,0,11.1-4.9,11.1-11.1
					C420,137.6,415.1,132.6,408.9,132.6"/>
				<path class="st2" d="M364.7,176.8c-6.1,0-11.1,4.9-11.1,11.1s4.9,11.1,11.1,11.1s11.1-4.9,11.1-11.1S370.8,176.8,364.7,176.8"/>
				<path class="st2" d="M364.7,221.1c-6.1,0-11.1,4.9-11.1,11.1c0,6.1,4.9,11.1,11.1,11.1s11.1-4.9,11.1-11.1
					C375.8,226,370.8,221.1,364.7,221.1"/>
				<path class="st2" d="M408.9,176.8c-6.1,0-11.1,4.9-11.1,11.1s4.9,11.1,11.1,11.1c6.1,0,11.1-4.9,11.1-11.1
					S415.1,176.8,408.9,176.8"/>
				<path class="st2" d="M408.9,221.1c-6.1,0-11.1,4.9-11.1,11.1c0,6.1,4.9,11.1,11.1,11.1c6.1,0,11.1-4.9,11.1-11.1
					C420,226,415.1,221.1,408.9,221.1"/>
				<path class="st2" d="M364.7,265.3c-6.1,0-11.1,4.9-11.1,11.1s4.9,11.1,11.1,11.1s11.1-4.9,11.1-11.1S370.8,265.3,364.7,265.3"/>
				<path class="st2" d="M364.7,309.5c-6.1,0-11.1,4.9-11.1,11.1s4.9,11.1,11.1,11.1s11.1-4.9,11.1-11.1S370.8,309.5,364.7,309.5"/>
				<path class="st2" d="M408.9,265.3c-6.1,0-11.1,4.9-11.1,11.1s4.9,11.1,11.1,11.1c6.1,0,11.1-4.9,11.1-11.1
					S415.1,265.3,408.9,265.3"/>
				<path class="st2" d="M408.9,309.5c-6.1,0-11.1,4.9-11.1,11.1s4.9,11.1,11.1,11.1c6.1,0,11.1-4.9,11.1-11.1
					S415.1,309.5,408.9,309.5"/>
				<path class="st2" d="M364.7,353.7c-6.1,0-11.1,4.9-11.1,11.1s4.9,11.1,11.1,11.1s11.1-4.9,11.1-11.1S370.8,353.7,364.7,353.7"/>
				<path class="st2" d="M408.9,353.7c-6.1,0-11.1,4.9-11.1,11.1s4.9,11.1,11.1,11.1c6.1,0,11.1-4.9,11.1-11.1
					S415.1,353.7,408.9,353.7"/>
				<path class="st2" d="M364.7,353.7c-6.1,0-11.1,4.9-11.1,11.1s4.9,11.1,11.1,11.1s11.1-4.9,11.1-11.1S370.8,353.7,364.7,353.7"/>
				<path class="st2" d="M408.9,353.7c-6.1,0-11.1,4.9-11.1,11.1s4.9,11.1,11.1,11.1c6.1,0,11.1-4.9,11.1-11.1
					S415.1,353.7,408.9,353.7"/>
				<path class="st2" d="M364.7,397.9c-6.1,0-11.1,4.9-11.1,11.1s4.9,11.1,11.1,11.1s11.1-4.9,11.1-11.1S370.8,397.9,364.7,397.9"/>
				<path class="st2" d="M408.9,397.9c-6.1,0-11.1,4.9-11.1,11.1s4.9,11.1,11.1,11.1c6.1,0,11.1-4.9,11.1-11.1
					S415.1,397.9,408.9,397.9"/>
			</g>
		</g>
	</g>
</g>
</svg>
